<svg width="16" height="16" viewBox="0 0 16 16" fill="none" xmlns="http://www.w3.org/2000/svg">
<path opacity="0.4" d="M11.2549 0.499878H4.75238C2.20988 0.499878 0.499878 2.28488 0.499878 4.93988V11.0674C0.499878 13.7149 2.20988 15.4999 4.75238 15.4999H11.2549C13.7974 15.4999 15.4999 13.7149 15.4999 11.0674V4.93988C15.4999 2.28488 13.7974 0.499878 11.2549 0.499878Z" fill="#EB5757"/>
<path d="M10.2616 9.32775L8.92737 7.99425L10.2609 6.66075C10.5174 6.405 10.5174 5.98875 10.2609 5.733C10.0044 5.475 9.58962 5.47575 9.33312 5.73225L7.99887 7.06575L6.66462 5.73075C6.40812 5.47425 5.99262 5.47575 5.73612 5.73075C5.48037 5.98725 5.48037 6.4035 5.73612 6.65925L7.07112 7.99425L5.73912 9.3255C5.48262 9.582 5.48262 9.99825 5.73912 10.2533C5.86737 10.3823 6.03462 10.446 6.20262 10.446C6.37137 10.446 6.53862 10.3823 6.66687 10.254L7.99887 8.922L9.33387 10.2563C9.46212 10.3845 9.62937 10.4483 9.79737 10.4483C9.96537 10.4483 10.1334 10.3838 10.2616 10.2563C10.5181 9.99975 10.5181 9.58425 10.2616 9.32775Z" fill="#EB5757"/>
</svg>
